<svg width="16" height="20" viewBox="0 0 16 20" fill="none" xmlns="http://www.w3.org/2000/svg">
<g clip-path="url(#clip0_329_177)">
<path d="M7.69846 20C7.28229 20.0013 6.87828 19.8597 6.5539 19.599C-0.348551 14.0275 0.000544669 7.74222 0.00432743 7.679C0.00432743 3.45204 3.45583 0 7.69846 0C11.9411 0 15.3899 3.44879 15.3931 7.68873C15.4072 7.97189 15.619 14.1297 8.84302 19.599C8.51851 19.8595 8.11459 20.001 7.69846 20V20ZM7.69846 0.454471C3.70603 0.454471 0.457178 3.70224 0.457178 7.69575C0.452315 7.77195 0.129699 13.8319 6.83815 19.2461C7.08194 19.4414 7.385 19.5479 7.69738 19.5479C8.00976 19.5479 8.31282 19.4414 8.55661 19.2461C15.2661 13.8308 14.9435 7.77087 14.9392 7.7098V7.69467C14.9392 3.70224 11.6909 0.454471 7.69846 0.454471Z" fill="white"/>
<path d="M7.69846 11.3328C6.93962 11.3328 6.19781 11.1078 5.56685 10.6862C4.9359 10.2646 4.44412 9.66535 4.15372 8.96426C3.86333 8.26318 3.78734 7.49173 3.93539 6.74746C4.08343 6.00319 4.44885 5.31954 4.98544 4.78295C5.52202 4.24637 6.20568 3.88095 6.94994 3.7329C7.69421 3.58486 8.46566 3.66084 9.16674 3.95124C9.86783 4.24164 10.4671 4.73341 10.8886 5.36437C11.3102 5.99533 11.5353 6.73713 11.5353 7.49598C11.5338 8.51313 11.1291 9.4882 10.4099 10.2074C9.69068 10.9267 8.71561 11.3314 7.69846 11.3328ZM7.69846 4.11149C7.02916 4.11138 6.37485 4.30976 5.8183 4.68153C5.26174 5.0533 4.82792 5.58176 4.57172 6.20009C4.31551 6.81841 4.24842 7.49883 4.37893 8.15529C4.50944 8.81174 4.83169 9.41476 5.30492 9.88806C5.77815 10.3614 6.38111 10.6837 7.03755 10.8143C7.69399 10.9449 8.37441 10.878 8.99278 10.6219C9.61115 10.3657 10.1397 9.93202 10.5115 9.37552C10.8834 8.81902 11.0819 8.16475 11.0819 7.49544C11.0809 6.59836 10.7241 5.73831 10.0898 5.10392C9.45554 4.46954 8.59554 4.11264 7.69846 4.11149V4.11149Z" fill="white"/>
</g>
<defs>
<clipPath id="clip0_329_177">
<rect width="15.3975" height="20" fill="white"/>
</clipPath>
</defs>
</svg>
