<svg width="18" height="20" viewBox="0 0 18 20" fill="none" xmlns="http://www.w3.org/2000/svg">
<g clip-path="url(#clip0_329_162)">
<path d="M17.6522 19.9975H0.226834C0.166615 19.9974 0.108921 19.9733 0.0663991 19.9307C0.0238775 19.888 -2.34431e-07 19.8303 4.48199e-09 19.77V8.01494C-0.00163883 7.98409 0.00302082 7.95323 0.0136964 7.92425C0.0243719 7.89526 0.0408386 7.86876 0.0620931 7.84634C0.0833476 7.82393 0.108945 7.80608 0.137323 7.79388C0.165702 7.78168 0.196266 7.77539 0.227155 7.77539C0.258044 7.77539 0.288611 7.78168 0.316989 7.79388C0.345367 7.80608 0.370963 7.82393 0.392217 7.84634C0.413472 7.86876 0.429938 7.89526 0.440614 7.92425C0.45129 7.95323 0.455951 7.98409 0.454312 8.01494V19.549H17.4247V8.01494C17.4247 7.95461 17.4487 7.89675 17.4913 7.85409C17.534 7.81143 17.5919 7.78746 17.6522 7.78746C17.7125 7.78746 17.7704 7.81143 17.813 7.85409C17.8557 7.89675 17.8797 7.95461 17.8797 8.01494V19.7726C17.879 19.8325 17.8547 19.8897 17.8121 19.9318C17.7696 19.9739 17.7121 19.9975 17.6522 19.9975Z" fill="white"/>
<path d="M8.93951 16.0247C8.88373 16.0247 8.82989 16.0042 8.78829 15.967L0.0756115 8.18284C0.0518118 8.16155 0.0327744 8.13548 0.0197447 8.10633C0.00671503 8.07718 -1.29657e-05 8.04561 1.87584e-08 8.01368C5.71926e-05 7.98166 0.00681439 7.95002 0.0198366 7.92077C0.0328589 7.89153 0.0518574 7.86533 0.0756115 7.84387L8.79021 0.0577621C8.8318 0.0205645 8.88564 0 8.94143 0C8.99723 0 9.05107 0.0205645 9.09266 0.0577621L17.8073 7.84387C17.8312 7.8652 17.8504 7.89135 17.8636 7.92062C17.8767 7.94988 17.8835 7.9816 17.8835 8.01368C17.8836 8.04567 17.8768 8.07732 17.8636 8.10649C17.8505 8.13566 17.8313 8.16169 17.8073 8.18284L9.09266 15.9689C9.05034 16.006 8.99573 16.0259 8.93951 16.0247ZM0.568371 8.01496L8.93951 15.4948L17.3126 8.01496L13.1475 4.29139L8.94272 0.533221L0.568371 8.01496Z" fill="white"/>
<path d="M10.899 4.58927C11.4462 4.86815 11.9031 5.29625 12.2171 5.82405C12.535 6.36601 12.6979 6.98487 12.6881 7.6131C12.6881 8.29874 12.5535 8.83571 12.2844 9.22402C12.1642 9.40913 11.9983 9.56018 11.8028 9.66264C11.6073 9.7651 11.3888 9.81552 11.1681 9.80905C10.9414 9.81629 10.7178 9.75414 10.5274 9.63092C10.35 9.50764 10.2213 9.32634 10.1634 9.11829C9.846 9.57624 9.37076 9.80649 8.73767 9.80905C8.39592 9.81393 8.05935 9.7253 7.76432 9.55274C7.47482 9.38225 7.23886 9.13408 7.08318 8.83635C6.91579 8.51402 6.83143 8.15503 6.83776 7.79188C6.83165 7.43223 6.91604 7.07682 7.08318 6.7583C7.23958 6.46072 7.47563 6.21246 7.76497 6.04127C8.0601 5.86899 8.3966 5.78038 8.73831 5.78496C8.99736 5.78094 9.25455 5.82933 9.49443 5.92721C9.71431 6.0191 9.90851 6.16315 10.0602 6.34692V5.8343H10.9394V8.52557C10.9394 8.71781 10.9772 8.85301 11.0541 8.93695C11.091 8.97884 11.1368 9.01205 11.1881 9.03421C11.2394 9.05636 11.2949 9.06691 11.3508 9.06511C11.5673 9.06511 11.7322 8.94251 11.8454 8.6973C11.9587 8.4521 12.0153 8.09646 12.0153 7.6304C12.0256 7.11084 11.8925 6.59849 11.6308 6.14956C11.375 5.72195 11.0033 5.37558 10.5588 5.15059C10.0674 4.9061 9.52414 4.78409 8.9754 4.79496C8.41835 4.78355 7.86741 4.91269 7.37345 5.17045C6.92228 5.41046 6.54952 5.77499 6.2995 6.22069C6.04148 6.68815 5.91046 7.21508 5.91952 7.74895C5.90921 8.28737 6.03882 8.81926 6.29566 9.29259C6.54237 9.73723 6.91215 10.1012 7.36063 10.3409C7.84783 10.599 8.39277 10.7287 8.944 10.7177C9.20886 10.7168 9.47286 10.6875 9.73152 10.6305C9.99068 10.5748 10.2419 10.487 10.4793 10.3691L10.6933 11.0022C10.4345 11.1326 10.1586 11.2258 9.87377 11.279C9.56785 11.342 9.25635 11.374 8.944 11.3745C8.20454 11.3745 7.55137 11.2188 6.9845 10.9074C6.43142 10.6098 5.97329 10.1626 5.66257 9.61682C5.34309 9.04683 5.18057 8.40228 5.1916 7.74895C5.18163 7.10135 5.34561 6.46294 5.66641 5.9003C5.98219 5.3552 6.44435 4.90946 7.00052 4.61362C7.57295 4.3022 8.23124 4.14649 8.9754 4.14649C9.69307 4.14563 10.3343 4.29323 10.899 4.58927ZM9.74562 8.70115C9.96476 8.47687 10.0743 8.17229 10.0743 7.7874C10.0743 7.4025 9.96476 7.10155 9.74562 6.88454C9.63562 6.77409 9.504 6.68754 9.35901 6.63031C9.21402 6.57309 9.05877 6.54642 8.90299 6.55197C8.55441 6.55197 8.27204 6.66411 8.05588 6.88838C7.83972 7.11265 7.73143 7.41168 7.731 7.78547C7.731 8.16567 7.8393 8.46897 8.05588 8.69538C8.27246 8.92179 8.55526 9.0367 8.90427 9.04012C9.06056 9.04523 9.21621 9.01773 9.36128 8.95937C9.50636 8.90101 9.63769 8.81307 9.7469 8.70115H9.74562Z" fill="white"/>
<path d="M8.93951 11.9863L13.2962 15.8797L17.6522 19.7724H8.93951H0.226837L4.58349 15.8797L8.93951 11.9863Z" fill="white"/>
<path d="M17.6522 19.9972H0.226835C0.180887 19.997 0.13607 19.9829 0.0982818 19.9568C0.0604936 19.9307 0.0315064 19.8937 0.0151377 19.8508C-0.00123107 19.8078 -0.00421415 19.7609 0.0065804 19.7163C0.0173749 19.6716 0.0414417 19.6313 0.0756116 19.6006L8.79021 11.817C8.83167 11.7795 8.88556 11.7588 8.94144 11.7588C8.99731 11.7588 9.0512 11.7795 9.09266 11.817L17.8073 19.6031C17.8407 19.6342 17.8641 19.6747 17.8742 19.7193C17.8843 19.7639 17.8808 19.8105 17.8641 19.853C17.8473 19.8956 17.8182 19.9321 17.7804 19.9578C17.7426 19.9835 17.6979 19.9972 17.6522 19.9972ZM0.822119 19.5486H17.0563L8.93951 12.2912L0.822119 19.5486Z" fill="white"/>
</g>
<defs>
<clipPath id="clip0_329_162">
<rect width="17.8797" height="20" fill="white"/>
</clipPath>
</defs>
</svg>
