<svg width="20" height="20" viewBox="0 0 20 20" fill="none" xmlns="http://www.w3.org/2000/svg">
<g clip-path="url(#clip0_329_168)">
<path d="M12.0764 1.11349H7.92507C7.90356 1.11381 7.8822 1.10983 7.86225 1.1018C7.8423 1.09377 7.82414 1.08185 7.80884 1.06673C7.79355 1.0516 7.78142 1.03359 7.77316 1.01373C7.7649 0.993866 7.76068 0.972559 7.76074 0.951049C7.7608 0.929597 7.76511 0.90837 7.77342 0.888592C7.78173 0.868814 7.79387 0.850878 7.80915 0.835818C7.82443 0.820759 7.84254 0.808874 7.86243 0.800851C7.88233 0.792828 7.90362 0.788825 7.92507 0.789073H12.0782C12.1209 0.789567 12.1617 0.806834 12.1917 0.837144C12.2218 0.867454 12.2387 0.908371 12.2388 0.951049C12.2389 0.972399 12.2347 0.993551 12.2266 1.01329C12.2184 1.03302 12.2065 1.05096 12.1914 1.06605C12.1763 1.08115 12.1583 1.09311 12.1386 1.10126C12.1189 1.1094 12.0977 1.11356 12.0764 1.11349Z" fill="#1C1738"/>
<path d="M12.0763 1.33994H7.92507C7.82184 1.33994 7.72285 1.29894 7.64986 1.22595C7.57686 1.15296 7.53586 1.05396 7.53586 0.950734C7.53586 0.847509 7.57686 0.748512 7.64986 0.67552C7.72285 0.602529 7.82184 0.561523 7.92507 0.561523H12.0782C12.1814 0.561523 12.2804 0.602529 12.3534 0.67552C12.4264 0.748512 12.4674 0.847509 12.4674 0.950734C12.4674 1.05396 12.4264 1.15296 12.3534 1.22595C12.2804 1.29894 12.1814 1.33994 12.0782 1.33994H12.0763Z" fill="white"/>
<path d="M14.4111 19.9897H5.59919C5.38501 19.9895 5.17969 19.9043 5.02828 19.7528C4.87688 19.6013 4.79178 19.3959 4.79166 19.1817V0.809483C4.79191 0.595389 4.87706 0.390135 5.02845 0.238748C5.17984 0.0873603 5.38509 0.00220164 5.59919 0.00195312H14.4111C14.6252 0.00220164 14.8305 0.0873603 14.9819 0.238748C15.1332 0.390135 15.2184 0.595389 15.2186 0.809483V19.1817C15.2184 19.3959 15.1333 19.6012 14.9819 19.7526C14.8305 19.9041 14.6253 19.9894 14.4111 19.9897ZM5.59919 0.454076C5.5526 0.454075 5.50648 0.463281 5.46346 0.481165C5.42045 0.499049 5.38139 0.525258 5.34854 0.558285C5.31568 0.591313 5.28968 0.630507 5.27203 0.673617C5.25437 0.716726 5.24541 0.762899 5.24566 0.809483V19.1817C5.24578 19.2755 5.28307 19.3653 5.34934 19.4316C5.41561 19.4979 5.50546 19.5351 5.59919 19.5353H14.4111C14.5048 19.535 14.5945 19.4977 14.6607 19.4314C14.7268 19.3652 14.7641 19.2754 14.7642 19.1817V0.809483C14.7641 0.715884 14.7268 0.626154 14.6606 0.559969C14.5944 0.493785 14.5047 0.456548 14.4111 0.456424L5.59919 0.454076Z" fill="white"/>
<path d="M13.6825 17.7431H6.32879C6.11465 17.743 5.90933 17.6579 5.75791 17.5065C5.6065 17.3551 5.52138 17.1497 5.52126 16.9356V2.36718C5.522 2.15341 5.60738 1.94863 5.75871 1.79765C5.91005 1.64667 6.11502 1.56177 6.32879 1.56152H13.6825C13.8966 1.5619 14.1019 1.64716 14.2532 1.79862C14.4046 1.95008 14.4898 2.15539 14.49 2.36952V16.9379C14.4891 17.1516 14.4037 17.3563 14.2524 17.5072C14.1011 17.658 13.8962 17.7429 13.6825 17.7431ZM6.32879 2.01318C6.23498 2.0133 6.14506 2.05065 6.07877 2.11703C6.01249 2.1834 5.97526 2.27337 5.97526 2.36718V16.9356C5.97526 17.0294 6.01249 17.1194 6.07877 17.1857C6.14506 17.2521 6.23498 17.2895 6.32879 17.2896H13.6825C13.7761 17.2893 13.8658 17.252 13.932 17.1857C13.9982 17.1195 14.0354 17.0297 14.0355 16.9361V2.36718C14.0355 2.27345 13.9984 2.18355 13.9322 2.11719C13.866 2.05083 13.7762 2.01343 13.6825 2.01318H6.32879Z" fill="white"/>
<path d="M16.745 12.6343C16.6987 12.6342 16.6535 12.62 16.6155 12.5935C16.5775 12.5671 16.5485 12.5296 16.5323 12.4862C16.5162 12.4428 16.5137 12.3955 16.5252 12.3506C16.5367 12.3058 16.5616 12.2655 16.5966 12.2352C16.9891 11.8986 17.3012 11.4784 17.51 11.0054C17.7189 10.5325 17.8191 10.0187 17.8035 9.50192C17.7878 8.98514 17.6566 8.47842 17.4195 8.01896C17.1824 7.55951 16.8454 7.15899 16.4332 6.8468C16.4095 6.82874 16.3895 6.80617 16.3745 6.78038C16.3594 6.7546 16.3496 6.7261 16.3456 6.69652C16.3415 6.66694 16.3434 6.63685 16.351 6.60798C16.3585 6.57911 16.3718 6.55202 16.3898 6.52825C16.4079 6.50448 16.4305 6.4845 16.4562 6.46946C16.482 6.45441 16.5105 6.44459 16.5401 6.44056C16.5697 6.43653 16.5998 6.43836 16.6286 6.44595C16.6575 6.45355 16.6846 6.46676 16.7084 6.48482C17.1743 6.83811 17.5552 7.29121 17.8232 7.81089C18.0912 8.33057 18.2394 8.90365 18.2571 9.48809C18.2747 10.0725 18.1613 10.6535 17.9252 11.1884C17.689 11.7233 17.3362 12.1986 16.8924 12.5793C16.8515 12.6148 16.7991 12.6343 16.745 12.6343Z" fill="white"/>
<path d="M17.8187 14.1229C17.7723 14.1229 17.727 14.1087 17.6889 14.0823C17.6508 14.0558 17.6217 14.0183 17.6055 13.9747C17.5893 13.9312 17.5869 13.8838 17.5985 13.8389C17.6101 13.7939 17.6352 13.7536 17.6704 13.7233C18.2794 13.2009 18.7637 12.5488 19.0877 11.8147C19.4118 11.0807 19.5673 10.2834 19.543 9.4814C19.5187 8.67939 19.3151 7.893 18.9472 7.17995C18.5793 6.46689 18.0564 5.84527 17.4168 5.3607C17.3715 5.32341 17.3424 5.27004 17.3356 5.21176C17.3287 5.15348 17.3447 5.09481 17.3801 5.04804C17.4155 5.00126 17.4677 4.97001 17.5256 4.96082C17.5836 4.95162 17.6429 4.9652 17.691 4.99872C18.3846 5.52418 18.9517 6.19826 19.3507 6.97149C19.7497 7.74472 19.9705 8.59749 19.997 9.46721C20.0234 10.3369 19.8548 11.2015 19.5034 11.9976C19.1521 12.7936 18.627 13.5009 17.9666 14.0675C17.9256 14.1031 17.8731 14.1228 17.8187 14.1229Z" fill="white"/>
<path d="M3.25501 12.6345C3.20069 12.6347 3.14814 12.6152 3.10712 12.5796C2.6632 12.1989 2.31017 11.7236 2.07396 11.1886C1.83775 10.6537 1.72436 10.0726 1.7421 9.48806C1.75984 8.90353 1.90827 8.3304 2.17649 7.81075C2.44471 7.29109 2.82591 6.8381 3.2921 6.48504C3.34026 6.45153 3.39953 6.43795 3.45748 6.44714C3.51543 6.45634 3.56758 6.48759 3.60301 6.53437C3.63844 6.58114 3.65441 6.63981 3.64756 6.69809C3.64071 6.75636 3.61159 6.80973 3.56628 6.84702C3.15422 7.15926 2.8173 7.5598 2.58024 8.01925C2.34319 8.4787 2.21201 8.9854 2.19634 9.50216C2.18067 10.0189 2.28091 10.5326 2.48969 11.0056C2.69848 11.4786 3.01051 11.8988 3.4029 12.2354C3.43815 12.2656 3.4633 12.3058 3.47496 12.3507C3.48662 12.3956 3.48423 12.443 3.46811 12.4865C3.45199 12.53 3.42291 12.5675 3.38481 12.594C3.3467 12.6204 3.3014 12.6346 3.25501 12.6345Z" fill="white"/>
<path d="M2.18081 14.1228C2.12644 14.1228 2.0739 14.1031 2.03292 14.0674C1.37262 13.5008 0.847545 12.7935 0.496226 11.9975C0.144906 11.2015 -0.0237493 10.3369 0.00263494 9.46725C0.0290192 8.59756 0.249773 7.74481 0.6487 6.97156C1.04763 6.19832 1.61461 5.52419 2.30804 4.99864C2.35613 4.96361 2.41605 4.94884 2.47491 4.9575C2.53377 4.96616 2.58689 4.99756 2.62286 5.04496C2.65882 5.09236 2.67476 5.15197 2.66725 5.21099C2.65974 5.27001 2.62938 5.32374 2.5827 5.36062C1.94354 5.84523 1.42096 6.46675 1.05326 7.1796C0.685559 7.89246 0.482071 8.67857 0.457715 9.4803C0.433359 10.282 0.588752 11.079 0.9125 11.8129C1.23625 12.5468 1.72014 13.1989 2.3287 13.7214C2.36387 13.7516 2.38894 13.7919 2.40055 13.8368C2.41216 13.8817 2.40976 13.9291 2.39366 13.9726C2.37756 14.0161 2.34854 14.0536 2.31049 14.0801C2.27244 14.1066 2.22719 14.1209 2.18081 14.1209V14.1228Z" fill="white"/>
</g>
<defs>
<clipPath id="clip0_329_168">
<rect width="20" height="19.9897" fill="white"/>
</clipPath>
</defs>
</svg>
