<svg width="150" height="150" viewBox="0 0 150 150" fill="none" xmlns="http://www.w3.org/2000/svg">
<path d="M67.6902 39.9697C66.2683 39.9697 65.1162 41.1222 65.1162 42.5438V65.2747H56.7086C55.2867 65.2747 54.1346 66.4271 54.1346 67.8487C54.1346 69.2703 55.2867 70.4227 56.7086 70.4227H67.6902C69.1121 70.4227 70.2643 69.2703 70.2643 67.8487V42.5438C70.2643 41.1222 69.1121 39.9697 67.6902 39.9697Z" fill="#303030"/>
<path d="M31.6724 67.8485C31.6724 66.4269 30.5203 65.2744 29.0984 65.2744H21.8564C20.4345 65.2744 19.2824 66.4269 19.2824 67.8485C19.2824 69.27 20.4345 70.4225 21.8564 70.4225H29.0987C30.5203 70.4225 31.6724 69.27 31.6724 67.8485Z" fill="#303030"/>
<path d="M103.708 67.8485C103.708 69.27 104.86 70.4225 106.282 70.4225H113.525C114.947 70.4225 116.099 69.27 116.099 67.8485C116.099 66.4269 114.947 65.2744 113.525 65.2744H106.282C104.86 65.2744 103.708 66.4269 103.708 67.8485Z" fill="#303030"/>
<path d="M67.6902 19.4404C66.2683 19.4404 65.1162 20.5929 65.1162 22.0145V29.2568C65.1162 30.6784 66.2683 31.8309 67.6902 31.8309C69.1121 31.8309 70.2643 30.6784 70.2643 29.2568V22.0145C70.2643 20.5929 69.1121 19.4404 67.6902 19.4404Z" fill="#303030"/>
<path d="M67.6902 103.866C66.2683 103.866 65.1162 105.019 65.1162 106.44V113.683C65.1162 115.104 66.2683 116.257 67.6902 116.257C69.1121 116.257 70.2643 115.104 70.2643 113.683V106.44C70.2643 105.019 69.1121 103.866 67.6902 103.866Z" fill="#303030"/>
<path d="M29.0912 87.1617L26.71 88.5366C25.4789 89.2473 25.0571 90.8216 25.7679 92.0527C26.2446 92.8785 27.1099 93.3401 27.9994 93.3401C28.436 93.3401 28.8787 93.2289 29.2841 92.9948L31.6652 91.6199C32.8963 90.9091 33.3181 89.3349 32.6073 88.1038C31.8969 86.8727 30.3226 86.4509 29.0912 87.1617Z" fill="#303030"/>
<path d="M105.005 48.8811C105.442 48.8811 105.885 48.7699 106.29 48.5358L108.671 47.1609C109.902 46.4502 110.324 44.8759 109.613 43.6448C108.902 42.4137 107.327 41.9919 106.097 42.7027L103.716 44.0776C102.484 44.7884 102.063 46.3627 102.773 47.5937C103.25 48.4195 104.115 48.8811 105.005 48.8811Z" fill="#303030"/>
<path d="M47.0024 26.8685C46.2917 25.6371 44.7167 25.2156 43.4863 25.9264C42.2552 26.6372 41.8334 28.2115 42.5442 29.4426L43.9191 31.8237C44.3961 32.6495 45.261 33.1111 46.1506 33.1111C46.5871 33.1111 47.0302 32.9999 47.4352 32.7658C48.6663 32.0551 49.0881 30.4808 48.3773 29.2497L47.0024 26.8685Z" fill="#303030"/>
<path d="M47.4352 102.932C46.2034 102.221 44.6295 102.643 43.9191 103.874L42.5442 106.256C41.8334 107.487 42.2552 109.061 43.4863 109.772C43.8919 110.006 44.3343 110.117 44.7709 110.117C45.6605 110.117 46.5257 109.655 47.0024 108.83L48.3773 106.449C49.0881 105.217 48.6663 103.643 47.4352 102.932Z" fill="#303030"/>
<path d="M87.9456 32.7659C88.3512 33 88.7936 33.1112 89.2302 33.1112C90.1198 33.1112 90.985 32.6496 91.4617 31.8238L92.8366 29.4426C93.5474 28.2116 93.1256 26.6373 91.8945 25.9265C90.6624 25.2154 89.0888 25.6375 88.3783 26.8686L87.0035 29.2498C86.2927 30.4808 86.7145 32.0551 87.9456 32.7659Z" fill="#303030"/>
<path d="M31.6652 44.0777L29.2841 42.7029C28.0523 41.9917 26.478 42.4139 25.7679 43.645C25.0571 44.876 25.4789 46.4503 26.71 47.1611L29.0912 48.536C29.4969 48.7701 29.9392 48.8813 30.3758 48.8813C31.2654 48.8813 32.1306 48.4196 32.6073 47.5939C33.3181 46.3628 32.8963 44.7885 31.6652 44.0777Z" fill="#303030"/>
<path d="M133.925 81.8665C134.89 77.2822 135.381 72.5766 135.381 67.8503C135.381 30.5235 105.015 0.15625 67.6906 0.15625C30.3662 0.15625 0 30.5238 0 67.8506C0 105.175 30.3659 135.541 67.6902 135.541C72.5833 135.541 77.4455 135.016 82.1721 133.984C88.9326 143.57 100.089 149.844 112.685 149.844C133.26 149.844 150 133.104 150 112.529C150 99.8395 143.632 88.6111 133.925 81.8665ZM67.6902 130.393C33.2045 130.393 5.14809 102.336 5.14809 67.8506C5.14809 33.3625 33.2045 5.30469 67.6902 5.30469C102.176 5.30469 130.233 33.3625 130.233 67.8506C130.233 71.6314 129.892 75.3963 129.223 79.0858C127.936 78.4471 126.608 77.8801 125.243 77.3907C125.759 74.2466 126.025 71.0483 126.025 67.8506C126.025 35.6829 99.8562 9.5124 67.6899 9.5124C35.5239 9.5124 9.35511 35.6829 9.35511 67.8506C9.35511 100.017 35.5239 126.185 67.6899 126.185C71.03 126.185 74.3642 125.896 77.6336 125.335C78.1326 126.696 78.7102 128.02 79.3586 129.302C75.5345 130.024 71.6241 130.393 67.6902 130.393ZM75.3698 112.529C75.3698 115.214 75.6574 117.833 76.199 120.359C73.3981 120.809 70.5467 121.037 67.6902 121.037C38.3633 121.037 14.5036 97.1779 14.5036 67.8506C14.5036 38.5216 38.3633 14.6605 67.6902 14.6605C97.0175 14.6605 120.877 38.5216 120.877 67.8506C120.877 70.576 120.669 73.3021 120.258 75.987C117.812 75.4808 115.279 75.2137 112.685 75.2137C92.1093 75.2137 75.3698 91.9533 75.3698 112.529ZM112.685 144.696C94.948 144.696 80.5179 130.265 80.5179 112.529C80.5179 94.7916 94.948 80.3615 112.685 80.3615C130.422 80.3615 144.852 94.7916 144.852 112.529C144.852 130.265 130.422 144.696 112.685 144.696Z" fill="#303030"/>
<path d="M112.685 84.3506C97.1476 84.3506 84.5066 96.9912 84.5066 112.529C84.5066 128.066 97.1473 140.707 112.685 140.707C128.223 140.707 140.863 128.066 140.863 112.529C140.863 96.9912 128.223 84.3506 112.685 84.3506ZM112.685 135.559C99.9863 135.559 89.6547 125.227 89.6547 112.528C89.6547 99.8295 99.9863 89.4983 112.685 89.4983C125.384 89.4983 135.715 99.8295 135.715 112.528C135.715 125.227 125.384 135.559 112.685 135.559Z" fill="#303030"/>
<path d="M117.108 105.531C117.108 106.953 118.26 108.105 119.682 108.105C121.104 108.105 122.256 106.953 122.256 105.531C122.256 101.145 119.29 97.4413 115.259 96.3142V95.2918C115.259 93.8703 114.107 92.7178 112.685 92.7178C111.263 92.7178 110.111 93.8703 110.111 95.2918V96.3142C106.08 97.4417 103.113 101.145 103.113 105.531C103.113 109.917 106.08 113.621 110.111 114.748V123.116C108.993 122.312 108.261 121.004 108.261 119.526C108.261 118.104 107.109 116.952 105.687 116.952C104.265 116.952 103.113 118.104 103.113 119.526C103.113 123.911 106.08 127.615 110.111 128.742V129.765C110.111 131.186 111.263 132.339 112.685 132.339C114.107 132.339 115.259 131.186 115.259 129.765V128.742C119.29 127.615 122.256 123.911 122.256 119.526C122.256 115.14 119.29 111.436 115.259 110.309V101.941C116.376 102.745 117.108 104.053 117.108 105.531ZM108.261 105.531C108.261 104.052 108.993 102.745 110.111 101.941V109.121C108.993 108.318 108.261 107.01 108.261 105.531ZM117.108 119.526C117.108 121.004 116.376 122.312 115.259 123.116V115.936C116.376 116.739 117.108 118.047 117.108 119.526Z" fill="#E9920F"/>
</svg>
