<svg width="150" height="150" viewBox="0 0 150 150" fill="none" xmlns="http://www.w3.org/2000/svg">
<g clip-path="url(#clip0_329_61)">
<path d="M0 148.218V26.6573C0.914386 25.2077 2.29223 24.9541 3.89866 24.9572C41.8645 24.9802 79.8313 24.9864 117.799 24.976H120.013V23.2665C120.013 19.3621 120.095 15.439 119.982 11.5565C119.919 9.46502 120.608 7.73984 121.817 6.15242C123.854 3.36907 126.814 1.39954 130.168 0.594891C131.014 0.388245 131.863 0.197253 132.711 0H137.408C137.775 0.103323 138.135 0.234825 138.508 0.3131C142.976 1.10837 146.533 3.32512 148.841 7.25453C149.531 8.41495 149.915 9.73145 149.956 11.0806C150.013 52.1218 150.027 93.1629 150 134.204C150 143.466 143.521 149.984 134.302 149.987C90.7163 149.987 47.1316 149.996 3.54794 150.013C1.97908 150 0.782865 149.596 0 148.218ZM5.09488 30.0357V144.987H133.798C134.286 144.987 134.775 144.987 135.26 144.965C139.362 144.677 142.569 142.799 144.028 138.963C144.836 136.859 144.686 134.389 145.005 132.075C145.199 130.688 144.576 129.655 143.753 128.631C140.23 124.248 133.948 124.248 129.505 126.126C127.313 127.065 125.772 128.715 124.767 130.891C124.206 132.106 123.182 132.642 121.886 132.332C120.633 132.037 120.054 131.117 120.007 129.849C120.007 129.263 120.007 128.678 120.007 128.092C120.007 96.0685 120.007 64.0436 120.007 32.0176C120.007 31.3601 119.951 30.7026 119.919 30.0138L5.09488 30.0357ZM125.03 122.886C131.806 119.038 138.348 119.113 145.015 122.886V121.367C145.015 84.8136 145.003 48.2602 144.98 11.7068C144.937 10.8021 144.644 9.92723 144.132 9.18009C140.847 4.26755 133.391 4.00455 129.317 6.19625C126.564 7.67408 124.933 9.70923 124.948 13.2629C125.064 49.0847 125.02 84.9065 125.02 120.725L125.03 122.886Z" fill="#303030"/>
<path d="M34.9878 84.9593C34.0233 84.9593 33.1966 85.1409 32.5014 84.9124C31.6904 84.6431 30.6225 84.1703 30.3564 83.5065C30.0589 82.7708 30.4628 81.6999 30.7071 80.817C30.8104 80.4444 31.2801 80.172 31.5933 79.8621L59.8547 51.5954C62.0091 49.4444 62.9862 49.435 65.1093 51.5484L93.474 79.9121C93.7872 80.2252 94.2412 80.507 94.3446 80.8796C94.5763 81.7219 94.9709 82.7582 94.6577 83.4408C94.3446 84.1233 93.3519 84.6337 92.5471 84.8967C91.8112 85.1378 90.9344 84.9499 89.9699 84.9499V116.426C89.9699 119.222 89.2059 119.995 86.4126 119.995C70.4547 119.995 54.4957 119.995 38.5357 119.995C35.78 119.995 34.9909 119.187 34.9878 116.388C34.9878 106.532 34.9878 96.6745 34.9878 86.816V84.9593ZM40.0889 85.0532V114.889H62.4757V113.22C62.4757 106.632 62.4757 100.044 62.4757 93.4569C62.4757 90.8174 63.3463 89.9658 66.0049 89.9627C70.2031 89.9627 74.4014 89.9627 78.5996 89.9627C81.7906 89.9627 82.5108 90.6671 82.5108 93.8075C82.5108 100.299 82.5108 106.79 82.5108 113.279V114.907H84.8813V85.0532H40.0889ZM62.6354 56.5392L39.3374 79.8558H85.9491L62.6354 56.5392ZM67.5894 114.882H77.3971V95.0412H67.5831L67.5894 114.882Z" fill="#303030"/>
<path d="M25.0705 114.946H29.8553V119.896H15.0498V115.014H19.8597V57.4979H15.0498V52.5791H29.871V57.4228H25.0705V114.946Z" fill="#E9920F"/>
<path d="M94.8738 49.9615H90.0326V45.1084H34.9878C34.9878 46.4109 34.9596 47.6664 34.9878 48.922C35.016 49.7329 34.7279 50.0617 33.8886 50.0272C32.6768 49.974 31.4586 50.0116 30.1058 50.0116V35.1143H34.9596V39.889H89.9167V35.1174H94.8738V49.9615Z" fill="#E9920F"/>
<path d="M14.8963 130.108V134.921H10.099V130.108H14.8963Z" fill="#303030"/>
<path d="M20.0601 134.906V130.103H24.8512V134.906H20.0601Z" fill="#303030"/>
<path d="M95.0273 134.928V130.131H99.881V134.928H95.0273Z" fill="#303030"/>
<path d="M105.089 130.081H109.877V134.918H105.089V130.081Z" fill="#303030"/>
<path d="M57.4748 97.5554C57.4748 99.0677 57.4998 100.58 57.4748 102.092C57.4341 103.999 56.5949 104.91 54.7222 104.945C51.5511 104.997 48.38 104.997 45.2089 104.945C43.4427 104.91 42.5346 103.958 42.5096 102.167C42.4615 99.0364 42.4615 95.9138 42.5096 92.7995C42.5346 91.0273 43.449 90.0285 45.212 89.9816C48.3831 89.9085 51.5543 89.9085 54.7254 89.9816C56.5604 90.0191 57.4153 91.0023 57.4811 92.8715C57.4811 92.9716 57.4811 93.0687 57.4811 93.1658C57.479 94.629 57.4769 96.0922 57.4748 97.5554ZM47.617 95.0131V99.8692H52.3643V95.0131H47.617Z" fill="#303030"/>
</g>
<defs>
<clipPath id="clip0_329_61">
<rect width="150" height="150" fill="white"/>
</clipPath>
</defs>
</svg>
