<svg width="135" height="154" viewBox="0 0 135 154" fill="none" xmlns="http://www.w3.org/2000/svg">
<path d="M74.2372 69.1567C75.9856 69.1567 82.7344 70.3234 86.1146 72.5927C89.7863 75.0369 93.5104 77.9362 93.5512 77.9654C93.9794 78.2861 94.5163 78.4256 95.0463 78.3539C95.5763 78.2821 96.057 78.005 96.3848 77.582C96.7126 77.159 96.8613 76.6241 96.799 76.0925C96.7366 75.5608 96.4682 75.0749 96.0514 74.7394C95.894 74.6169 92.1758 71.7235 88.3817 69.1917C84.0982 66.3391 76.4343 65.0732 74.2372 65.0732C71.7661 65.0732 69.9419 67.4067 68.3334 69.4426C67.8927 70.0286 67.4219 70.5913 66.923 71.1285C66.0372 72.0152 61.6778 73.0535 57.4525 73.0535C54.3955 72.976 51.4001 72.1764 48.7105 70.7201C47.9301 70.2544 47.2132 69.6897 46.5774 69.0401C45.0272 67.605 43.0806 65.8199 40.0501 65.4816C35.3877 64.9624 24.6874 69.6934 17.8221 76.5653C10.9567 83.4373 1.14812 129.114 0.0641066 134.318C0.00172823 134.615 0.00628872 134.922 0.0774637 135.217C0.148639 135.512 0.284624 135.787 0.475543 136.023C0.666461 136.259 0.907501 136.449 1.18112 136.58C1.45474 136.711 1.75405 136.779 2.05728 136.779H32.7184C32.9863 136.782 33.2521 136.732 33.5006 136.632C33.7491 136.532 33.9755 136.383 34.1668 136.196C34.3581 136.008 34.5106 135.784 34.6156 135.538C34.7205 135.291 34.776 135.026 34.7786 134.758C34.7813 134.49 34.7312 134.224 34.6312 133.975C34.5311 133.726 34.3831 133.5 34.1956 133.308C34.0081 133.117 33.7847 132.964 33.5383 132.859C33.2918 132.754 33.0271 132.698 32.7592 132.696H8.33987C7.88438 132.696 7.4346 132.594 7.02385 132.397C6.6131 132.2 6.25191 131.913 5.96703 131.557C5.68214 131.202 5.48087 130.786 5.37811 130.342C5.27535 129.898 5.27375 129.436 5.37341 128.992C9.72694 109.408 16.534 83.6356 20.6894 79.4763C27.2867 72.8727 36.798 69.2559 39.5838 69.5592C41.2914 69.7518 42.4512 70.8251 43.7917 72.0618C44.7018 72.9816 45.7378 73.7673 46.8688 74.3953C50.1279 76.1191 53.7439 77.0579 57.4292 77.137C60.6288 77.137 67.3368 76.4837 69.7846 74.0161C70.4051 73.3668 70.9889 72.6832 71.533 71.9685C72.2032 71.0935 73.6544 69.2792 74.2372 69.1567Z" fill="#303030"/>
<path d="M131.608 75.9708H109.928C109.66 75.9678 109.394 76.0176 109.146 76.1173C108.897 76.2171 108.67 76.3649 108.479 76.5524C108.287 76.7398 108.134 76.9631 108.029 77.2097C107.924 77.4562 107.868 77.7211 107.865 77.9892C107.862 78.2574 107.911 78.5235 108.011 78.7724C108.111 79.0212 108.259 79.2481 108.446 79.4398C108.633 79.6316 108.856 79.7845 109.102 79.89C109.349 79.9954 109.613 80.0513 109.881 80.0543H127.499C128.301 80.0543 129.071 80.3711 129.64 80.9359C130.21 81.5007 130.534 82.2677 130.542 83.0703L130.92 138.087C130.925 138.626 131.142 139.141 131.524 139.521C131.906 139.901 132.422 140.115 132.96 140.117C133.228 140.114 133.493 140.059 133.739 139.955C133.986 139.85 134.21 139.697 134.397 139.506C134.585 139.315 134.734 139.089 134.834 138.84C134.934 138.591 134.985 138.325 134.983 138.057L134.575 78.9343C134.568 78.1492 134.254 77.3981 133.699 76.8435C133.143 76.2889 132.392 75.9754 131.608 75.9708Z" fill="#303030"/>
<path d="M116.362 88.1738H74.447C73.2877 88.1738 72.176 88.6348 71.3562 89.4553C70.5365 90.2758 70.076 91.3886 70.076 92.549V149.624C70.076 150.785 70.5365 151.898 71.3562 152.718C72.176 153.539 73.2877 154 74.447 154H116.362C117.521 154 118.633 153.539 119.453 152.718C120.273 151.898 120.733 150.785 120.733 149.624V92.549C120.734 91.9742 120.621 91.4049 120.402 90.8738C120.182 90.3426 119.861 89.86 119.455 89.4536C119.048 89.0471 118.566 88.7249 118.036 88.5053C117.505 88.2857 116.936 88.1731 116.362 88.1738ZM116.653 149.624C116.653 149.702 116.623 149.776 116.568 149.831C116.513 149.885 116.439 149.916 116.362 149.916H74.447C74.3702 149.915 74.2969 149.883 74.2426 149.829C74.1883 149.775 74.1571 149.701 74.1556 149.624V127.119H92.2224C92.7634 127.124 93.2844 126.914 93.6708 126.535C94.0571 126.156 94.2772 125.639 94.2826 125.097C94.288 124.556 94.0783 124.034 93.6996 123.648C93.3209 123.261 92.8042 123.041 92.2632 123.035H74.1556V109.478H92.2224C92.4903 109.481 92.7561 109.43 93.0046 109.33C93.2531 109.23 93.4795 109.082 93.6708 108.894C93.8621 108.707 94.0146 108.483 94.1195 108.236C94.2245 107.99 94.2799 107.725 94.2826 107.457C94.2853 107.189 94.2352 106.922 94.1352 106.674C94.0351 106.425 93.8871 106.198 93.6996 106.007C93.5121 105.815 93.2887 105.663 93.0423 105.558C92.7958 105.453 92.5311 105.397 92.2632 105.394H74.1556V92.5607C74.1556 92.4833 74.1863 92.4091 74.2409 92.3544C74.2956 92.2997 74.3697 92.269 74.447 92.269H116.362C116.439 92.269 116.513 92.2997 116.568 92.3544C116.623 92.4091 116.653 92.4833 116.653 92.5607V149.624Z" fill="#E9920F"/>
<path d="M104.997 120.527C104.157 120.36 103.286 120.467 102.511 120.834C101.737 121.2 101.101 121.806 100.697 122.562C100.293 123.318 100.143 124.184 100.269 125.032C100.394 125.88 100.789 126.666 101.395 127.272C102 127.878 102.785 128.273 103.632 128.399C104.479 128.525 105.345 128.374 106.1 127.97C106.855 127.566 107.461 126.929 107.827 126.154C108.193 125.379 108.3 124.506 108.133 123.666C107.979 122.891 107.599 122.179 107.04 121.621C106.482 121.062 105.771 120.681 104.997 120.527Z" fill="#303030"/>
<path d="M103.022 111.141C103.862 111.308 104.733 111.201 105.508 110.834C106.282 110.468 106.918 109.862 107.322 109.106C107.726 108.35 107.876 107.484 107.751 106.635C107.625 105.787 107.23 105.002 106.624 104.396C106.019 103.79 105.234 103.395 104.387 103.269C103.54 103.143 102.675 103.293 101.919 103.698C101.164 104.102 100.558 104.739 100.192 105.514C99.8262 106.289 99.7189 107.161 99.8862 108.002C100.04 108.777 100.421 109.489 100.979 110.047C101.537 110.606 102.248 110.986 103.022 111.141Z" fill="#303030"/>
<path d="M57.5691 53.8377C60.5689 53.8377 63.0008 52.0982 63.0008 49.9525C63.0008 47.8068 60.5689 46.0674 57.5691 46.0674C54.5692 46.0674 52.1374 47.8068 52.1374 49.9525C52.1374 52.0982 54.5692 53.8377 57.5691 53.8377Z" fill="#303030"/>
<path d="M93.9184 30.1363C93.9184 26.6362 92.17 23.7953 90.0427 23.7953C89.7934 23.796 89.5457 23.8354 89.3084 23.9119C87.4714 17.0217 83.4021 10.9365 77.7385 6.6101C72.0748 2.28372 65.137 -0.0391871 58.0126 0.00551616C50.8882 0.0502194 43.98 2.46001 38.371 6.85712C32.762 11.2542 28.7692 17.3901 27.0187 24.3028C26.7737 24.2239 26.5183 24.1826 26.261 24.1803C24.1163 24.1803 22.3795 27.0212 22.3795 30.5272C22.3795 34.0331 24.1163 36.8857 26.261 36.8857H26.3717C27.4903 44.576 31.3491 51.6021 37.2365 56.6682C43.124 61.7344 50.6429 64.4989 58.4067 64.452C66.1705 64.4051 73.6555 61.5499 79.4814 56.413C85.3073 51.2761 89.0811 44.2039 90.1069 36.5007C92.2166 36.4191 93.9184 33.6073 93.9184 30.1363ZM85.8 29.8855C85.8 34.1148 80.9394 37.5566 74.9715 37.5566C69.0036 37.5566 64.1373 34.1148 64.1373 29.8855C64.1373 25.6562 68.9978 22.2144 74.9715 22.2144C80.9452 22.2144 85.8 25.6503 85.8 29.8855ZM58.216 4.0895H58.5832C57.8599 4.73207 57.2179 5.46085 56.6716 6.25959C54.5327 9.38637 54.0315 13.1315 55.8906 14.0415C58.8629 15.5058 61.5788 11.3639 64.2946 8.79135C65.1137 8.02008 66.1012 7.45079 67.1787 7.12874C68.2563 6.8067 69.394 6.7408 70.5014 6.93628C76.2976 9.77246 80.9511 14.5066 83.6902 20.3535C81.0182 18.8653 78.0058 18.0975 74.9482 18.125C68.2751 18.125 62.6103 21.596 60.7104 26.3679C59.7336 26.0309 58.7071 25.8613 57.674 25.8662C56.898 25.8637 56.1247 25.9577 55.3719 26.1462C53.5594 21.1935 47.9703 17.5767 41.3847 17.5767C38.4529 17.5566 35.5671 18.3069 33.0157 19.7526C35.3412 15.0506 38.9326 11.0922 43.3852 8.32376C47.8377 5.55528 52.9743 4.08674 58.216 4.08367V4.0895ZM51.3564 29.6288C51.3564 33.7123 46.8922 37.0024 41.3963 37.0024C35.9005 37.0024 31.4421 33.6948 31.4421 29.6288C31.4421 25.5628 35.9064 22.2494 41.3963 22.2494C46.8863 22.2494 51.3564 25.5512 51.3564 29.623V29.6288ZM58.216 60.3483C51.7333 60.3394 45.4524 58.0911 40.4341 53.9832C35.4159 49.8753 31.968 44.1596 30.6728 37.8016C33.6599 40.3507 37.4714 41.7254 41.3963 41.6693C47.9937 41.6693 53.5827 38.0525 55.3836 33.0998C56.1364 33.2882 56.9097 33.3823 57.6856 33.3798C58.6609 33.3863 59.6309 33.2366 60.5588 32.9364C62.2665 37.9416 68.0711 41.6401 74.9599 41.6401C78.8482 41.7001 82.6394 40.4235 85.7009 38.0233C84.362 44.3296 80.903 49.9855 75.9011 54.0473C70.8992 58.1092 64.657 60.3311 58.216 60.3425V60.3483Z" fill="#303030"/>
</svg>
