<svg width="140" height="150" viewBox="0 0 140 150" fill="none" xmlns="http://www.w3.org/2000/svg">
<g clip-path="url(#clip0_329_74)">
<path d="M69.1236 149.993C68.7017 149.693 68.2635 149.417 67.8111 149.166C45.9682 138.555 24.1175 127.959 2.25909 117.378C0.627105 116.594 -0.00387704 115.575 1.7911e-05 113.757C0.0441606 87.8501 0.0441606 61.9444 1.7911e-05 36.0399C1.7911e-05 34.2023 0.662159 33.2149 2.28246 32.4313C24.237 21.8261 46.1785 11.1803 68.1071 0.494133C68.6942 0.16933 69.3533 -0.000976562 70.0234 -0.000976562C70.6934 -0.000976562 71.3526 0.16933 71.9397 0.494133C93.8994 11.2038 115.875 21.8757 137.866 32.5097C139.451 33.2737 140.019 34.3042 140.016 36.036C139.971 61.9431 139.971 87.8501 140.016 113.757C140.016 115.579 139.377 116.602 137.76 117.385C115.881 127.962 94.024 138.562 72.189 149.185C71.7365 149.434 71.297 149.706 70.8725 150L69.1236 149.993ZM7.31473 34.9233C7.96129 35.2563 8.38195 35.4796 8.81429 35.7069L49.7112 55.576C51.3276 56.3597 52.9596 57.1198 54.5488 57.9583C54.8161 58.0796 55.056 58.2545 55.2539 58.4722C55.4518 58.6899 55.6035 58.946 55.6997 59.2247C55.796 59.5033 55.8347 59.7988 55.8136 60.0931C55.7925 60.3874 55.712 60.6742 55.577 60.9361C55.0629 61.9588 53.9022 62.3623 52.6909 61.9C52.2391 61.7276 51.8145 61.4847 51.3783 61.2731L6.01382 39.2293C5.52695 38.9943 5.0245 38.7866 4.4831 38.5437C4.45041 38.712 4.42701 38.8821 4.41299 39.053C4.41299 63.5417 4.4013 88.0304 4.37793 112.519C4.37793 113.389 4.76743 113.695 5.42958 114C25.8391 123.89 46.2447 133.797 66.6465 143.724C66.962 143.876 67.3125 143.966 67.8149 144.143V142.07C67.8149 118.659 67.7838 95.2438 67.8656 71.8287C67.8656 69.803 67.3515 68.6628 65.439 68.0711C64.4875 67.7044 63.5655 67.2643 62.6814 66.7546C61.0338 65.9475 60.4496 64.7955 61.0183 63.5495C61.5869 62.3036 62.8606 61.9823 64.5237 62.7659C66.366 63.624 68.22 65.1403 70.0623 65.1168C71.9046 65.0933 73.7547 63.5848 75.5893 62.7032C78.787 61.1673 81.9614 59.5687 85.1708 58.0758C86.8807 57.2922 88.5633 58.2208 88.5322 59.9213C88.5322 61.0341 87.8389 61.6571 86.8846 62.1155C82.4638 64.2431 78.0742 66.4255 73.6418 68.5256C72.5824 69.0232 72.1734 69.6031 72.1773 70.8178C72.2162 94.7187 72.2266 118.62 72.2084 142.521C72.2084 143.03 72.2552 143.539 72.2863 144.205C72.8667 143.943 73.2601 143.774 73.6457 143.59C93.9072 133.753 114.178 123.921 134.458 114.094C135.431 113.624 135.626 113.04 135.626 112.072C135.603 88.0696 135.596 64.0694 135.607 40.0718V38.528C135.217 38.6926 134.979 38.767 134.769 38.8689C128.65 41.8389 122.543 44.8245 116.408 47.7592C115.594 48.1511 115.442 48.6643 115.446 49.4715C115.466 57.6331 115.446 65.7947 115.481 73.9602C115.481 75.5275 114.885 76.4952 113.479 77.1613C108.521 79.5122 103.594 81.9337 98.6551 84.3199C96.0845 85.5619 94.7329 84.7117 94.7329 81.8828C94.7329 73.8661 94.7018 65.8495 94.7602 57.8368C94.7602 56.6614 94.3707 56.1089 93.3736 55.627C86.7132 52.4454 80.0801 49.2011 73.4392 45.9765C58.9786 38.9551 44.5128 31.9415 30.0417 24.9358C29.511 24.6616 28.8952 24.6054 28.3241 24.7791C21.3833 28.0782 14.4892 31.4439 7.31473 34.9233ZM51.9703 13.2478C52.5195 13.5574 52.7999 13.7376 53.0959 13.8826C73.3133 23.6963 93.5398 33.4996 113.775 43.2925C114.421 43.5156 115.128 43.4777 115.746 43.1867C121.012 40.6908 126.243 38.1283 131.482 35.5815C131.821 35.413 132.14 35.1897 132.65 34.9115L124.95 31.1657C106.997 22.4464 89.0411 13.7311 71.0828 5.01964C70.5843 4.78063 69.8169 4.60823 69.3729 4.82373C63.6201 7.55863 57.9179 10.3562 51.9703 13.2478ZM34.2171 21.9854C34.7352 22.2675 35.1052 22.4908 35.4908 22.675C55.2252 32.2667 74.9596 41.8702 94.694 51.4854C96.2208 52.2338 97.3776 52.2299 98.846 51.458C102.27 49.6635 105.779 48.0374 109.499 46.2272C108.766 45.8354 108.276 45.569 107.769 45.3221L82.2301 32.9171C70.8309 27.3794 59.4343 21.8443 48.0403 16.3119C47.5612 16.0807 46.8407 15.8769 46.4239 16.0689C42.3693 17.9693 38.3691 19.9558 34.2171 21.9854ZM99.1576 79.0734C99.512 78.948 99.7379 78.8892 99.9366 78.7913C103.345 77.1457 106.737 75.4569 110.169 73.8622C111.029 73.4704 111.072 72.8905 111.072 72.1225C111.072 65.3323 111.072 58.5382 111.072 51.7479C111.072 51.3796 111.029 51.0113 110.994 50.4824C110.426 50.7292 109.989 50.9055 109.565 51.1093C106.507 52.5865 103.469 54.1106 100.381 55.529C99.4069 55.9796 99.0524 56.5125 99.0602 57.6096C99.1186 64.2705 99.0875 70.9001 99.0914 77.5414C99.0914 78.0155 99.1303 78.4818 99.1576 79.0734Z" fill="#303030"/>
<path d="M11.8679 89.5386C12.2596 89.6513 12.6434 89.7901 13.0169 89.9539C19.0463 92.869 25.0692 95.7959 31.0856 98.7346C31.5919 98.9814 32.3086 99.3537 32.3982 99.7807C32.5735 100.6 32.6514 101.669 32.258 102.328C31.6309 103.374 30.4702 103.311 29.3991 102.79L16.6976 96.6188C14.6879 95.6431 12.6742 94.6871 10.6799 93.6801C9.65947 93.1629 9.15702 92.2892 9.48031 91.1372C9.77243 90.091 10.5164 89.519 11.8679 89.5386Z" fill="#E9920F"/>
<path d="M23.6501 106.437C23.6813 108.643 22.0571 109.623 20.3433 108.823C17.5779 107.534 14.8515 106.167 12.1055 104.831C11.5836 104.576 11.0422 104.349 10.5475 104.047C9.43358 103.365 9.08694 102.249 9.61665 101.175C9.72774 100.916 9.89046 100.682 10.0948 100.489C10.2991 100.295 10.5407 100.146 10.8046 100.05C11.0685 99.9546 11.3491 99.9142 11.6291 99.9317C11.9092 99.9493 12.1826 100.024 12.4327 100.152C15.8096 101.72 19.171 103.35 22.4856 105.058C23.0815 105.364 23.4242 106.163 23.6501 106.437Z" fill="#E9920F"/>
</g>
<defs>
<clipPath id="clip0_329_74">
<rect width="140" height="150" fill="white"/>
</clipPath>
</defs>
</svg>
