<svg width="172" height="45" viewBox="0 0 172 45" fill="none" xmlns="http://www.w3.org/2000/svg">
<g clip-path="url(#clip0_452_2)">
<path d="M96.2574 0C96.2574 0.635467 96.2574 1.27093 96.2574 1.9064C96.2574 4.44827 96.2574 6.99013 96.2574 9.532C96.2574 11.5685 96.2461 13.605 96.2753 15.6392C96.2911 16.6799 96.2754 17.7205 96.3001 18.759C96.3001 18.9608 96.2506 19.0169 96.0459 19.0147C95.0742 19.0034 94.1024 19.0147 93.1217 19.0147C92.9462 19.0147 92.8967 18.9698 92.8967 18.7904C92.8967 18.2431 92.8967 17.6959 92.8967 17.1486C92.8862 13.7096 92.8765 10.2654 92.8675 6.81594V6.60287C92.755 6.60287 92.7483 6.69034 92.7145 6.74193C90.7365 10.0314 88.7623 13.3209 86.7918 16.6103C86.7573 16.6912 86.6975 16.7588 86.6212 16.8029C86.545 16.847 86.4564 16.8652 86.3689 16.8548C86.01 16.8357 85.6503 16.8357 85.2914 16.8548C85.217 16.8622 85.1422 16.8463 85.0773 16.8093C85.0124 16.7723 84.9607 16.7161 84.9293 16.6485C83.2062 13.7941 81.4719 10.9442 79.7263 8.09883C79.4407 7.63233 79.155 7.16806 78.8266 6.70604V6.97966C78.8266 10.8822 78.8266 14.7847 78.8266 18.685C78.8266 18.9451 78.7636 19.0124 78.5027 19.0079C77.6029 18.99 76.6851 18.9922 75.7786 19.0079C75.5379 19.0079 75.466 18.9586 75.466 18.7051C75.4749 14.07 75.4749 9.44079 75.466 4.81758V0H78.3902C78.3881 0.00809101 78.3881 0.0165802 78.3902 0.0246712C80.8556 4.13502 83.3217 8.24686 85.7885 12.3602C85.8223 12.4163 85.8358 12.497 85.928 12.5105C87.0347 10.6459 88.1407 8.78215 89.2459 6.91911L93.3399 0.00896979L96.2574 0Z" fill="#E9920F"/>
<path d="M24.7796 0C24.7796 0.0964414 24.7662 0.195126 24.7662 0.291568C24.7662 6.42195 24.7662 12.5478 24.7662 18.6693C24.7662 18.9362 24.7077 19.0124 24.431 19.0079C23.4682 18.9877 22.5055 18.9922 21.5427 19.0079C21.3043 19.0079 21.2481 18.9496 21.2481 18.7141C21.2481 13.6005 21.2481 8.48834 21.2481 3.37769C21.2481 2.96277 21.2998 3.0166 20.8949 3.0166C18.6297 3.0166 16.3623 3.0166 14.0949 3.0166C13.8429 3.0166 13.7575 3.06818 13.753 3.32835C13.7245 4.67404 13.684 6.01974 13.6315 7.36543C13.5438 9.69124 13.4291 12.017 12.9432 14.3025C12.6845 15.5293 12.2953 16.7045 11.5283 17.725C10.7612 18.7455 9.72875 19.2075 8.46683 19.2816C7.76596 19.2912 7.06651 19.2159 6.38386 19.0573C6.2444 19.0326 6.19491 18.972 6.20841 18.8195C6.28639 17.9224 6.36137 17.0305 6.43335 16.1438C6.44684 15.9756 6.48958 15.9397 6.65829 15.9756C7.87973 16.2201 8.81324 15.7626 9.3576 14.6479C9.80748 13.7507 9.98294 12.7661 10.1269 11.7838C10.3327 10.3022 10.4476 8.80942 10.4711 7.31385C10.5116 5.75733 10.5768 4.19857 10.6308 2.64205L10.7252 0.0134564L24.7796 0Z" fill="#E9920F"/>
<path d="M57.5493 0C57.5493 0.939743 57.5493 1.88173 57.5628 2.82371C57.5628 3.03005 57.4346 2.99865 57.3131 2.99865H53.75C51.6715 2.99865 49.5931 2.99865 47.5146 2.99865C47.2739 2.99865 47.2154 3.06145 47.2177 3.29695C47.2282 4.7503 47.2282 6.20365 47.2177 7.657C47.2177 7.88128 47.2807 7.92165 47.4876 7.92165C50.3579 7.92165 53.2281 7.92165 56.0984 7.91044C56.3526 7.91044 56.4111 7.97997 56.4066 8.22219C56.3908 9.00269 56.3931 9.79217 56.4066 10.5637C56.4066 10.788 56.3413 10.8284 56.1344 10.8284C53.2641 10.8284 50.3939 10.8284 47.5236 10.8284C47.2694 10.8284 47.2154 10.9024 47.2177 11.1401C47.2282 12.6742 47.2282 14.2083 47.2177 15.7424C47.2177 15.9981 47.2942 16.0496 47.5348 16.0496C50.8977 16.0496 54.2629 16.0496 57.628 16.0384C57.8665 16.0384 57.9497 16.0878 57.9452 16.3435C57.9272 17.1598 57.9452 17.9762 57.9452 18.7926C57.9452 18.9653 57.9002 19.0169 57.7202 19.0169C53.1134 19.0169 48.5066 19.0169 43.8998 19.0169C43.6591 19.0169 43.6748 18.9025 43.6748 18.741C43.6748 14.0939 43.6748 9.44677 43.6748 4.79964V0H57.5493Z" fill="#E9920F"/>
<path d="M124.816 0C125.18 0.823116 125.543 1.65072 125.914 2.46711C128.36 7.89175 130.813 13.3089 133.274 18.7186C133.31 18.7993 133.339 18.8823 133.386 19.0012H132.732C131.814 19.0012 130.896 18.99 129.981 19.0012C129.886 19.014 129.79 18.9916 129.711 18.9383C129.631 18.8849 129.575 18.8043 129.551 18.7119C129.004 17.4178 128.426 16.1304 127.884 14.8385C127.864 14.7668 127.818 14.7048 127.756 14.6637C127.694 14.6225 127.619 14.605 127.545 14.6142C124.545 14.6142 121.541 14.6142 118.531 14.6142C118.457 14.6049 118.381 14.6223 118.319 14.6634C118.256 14.7046 118.21 14.7667 118.189 14.8385C117.634 16.1573 117.065 17.4738 116.509 18.7926C116.457 18.9137 116.414 19.0012 116.25 18.999C115.126 18.999 114.001 18.999 112.876 18.999C112.838 18.9938 112.801 18.9863 112.764 18.9765C112.876 18.7253 112.989 18.4831 113.094 18.2409C115.825 12.1853 118.557 6.12964 121.291 0.0740136C121.3 0.0497663 121.308 0.0250585 121.314 0H124.816ZM123.017 3.63786C122.974 3.72982 122.945 3.79486 122.918 3.86214L119.611 11.5618C119.496 11.8309 119.496 11.8309 119.786 11.8309H126.555C126.508 11.5954 123.187 3.90924 123.014 3.63786H123.017Z" fill="#E9920F"/>
<path d="M158.449 0.000288466C158.445 0.00778942 158.443 0.0162983 158.443 0.0249597C158.443 0.033621 158.445 0.0421299 158.449 0.0496309C158.377 0.0496309 158.306 0.0496309 158.225 0.0496309H149.852V-0.00195312L158.449 0.000288466Z" fill="#E9920F"/>
<path d="M86.8098 44.9997V44.9414H91.4863L91.5021 45.0065L86.8098 44.9997Z" fill="#E9920F"/>
<path d="M171.885 23.3256L172 23.3076V27.3985H171.888C171.937 27.3229 171.955 27.2315 171.939 27.1428C171.939 25.9571 171.939 24.7707 171.939 23.5835C171.939 23.4893 171.957 23.3884 171.885 23.3256Z" fill="#E9920F"/>
<path d="M0.0494872 33.1061H0.0247438H0V31.5967H0.0472377C0.0487373 32.1051 0.0494872 32.6082 0.0494872 33.1061Z" fill="#E9920F"/>
<path d="M91.4908 44.9346H86.8143C86.8143 44.8538 86.7985 44.7731 86.7985 44.6946C86.7985 42.3172 86.7985 39.9398 86.7985 37.5624C86.7985 37.4279 86.7491 37.2866 86.992 37.2776C88.5306 37.217 89.2009 36.6877 89.6643 35.1716C90.0051 33.9747 90.2258 32.7471 90.3234 31.5068C90.5056 29.6318 90.5371 27.7501 90.6023 25.8706C90.6293 25.0923 90.672 24.3141 90.6923 23.5358C90.6923 23.3564 90.753 23.3115 90.9172 23.3115C95.623 23.3115 100.329 23.3115 105.035 23.3115C105.278 23.3115 105.26 23.4349 105.26 23.5964C105.26 28.0371 105.26 32.4779 105.26 36.9187C105.26 37.3404 105.203 37.2843 105.633 37.2866C106.245 37.2866 106.857 37.2866 107.468 37.2866C107.642 37.2866 107.693 37.3292 107.693 37.5108C107.693 39.9241 107.693 42.3374 107.693 44.7507C107.693 44.9166 107.646 44.9637 107.482 44.9615C106.069 44.9615 104.657 44.9615 103.244 44.9615C103.053 44.9615 103.003 44.9009 103.003 44.7148C103.003 43.6831 103.003 42.6514 103.003 41.6219C103.003 41.3976 102.965 41.3326 102.729 41.3326C99.0669 41.3416 95.4048 41.3416 91.7428 41.3326C91.5313 41.3326 91.4751 41.3864 91.4751 41.5995C91.5043 42.7119 91.4931 43.8244 91.4908 44.9346ZM93.4343 37.2776C93.5221 37.2776 93.5648 37.2888 93.6075 37.2888C95.731 37.2888 97.8522 37.2888 99.9734 37.2888C100.212 37.2888 100.198 37.1744 100.198 37.0107C100.198 33.8917 100.198 30.7712 100.198 27.6491C100.198 27.4428 100.149 27.38 99.9329 27.38C98.4933 27.3912 97.0559 27.38 95.6163 27.38C95.0359 27.38 95.0359 27.38 95.0179 27.9564C94.9959 29.6526 94.8878 31.3466 94.694 33.0319C94.4916 34.4987 94.2531 35.9476 93.4343 37.2776Z" fill="#E9920F"/>
<path d="M81.9465 32.3593C81.9465 35.2481 81.9465 38.1369 81.9465 41.0234C81.9465 41.3105 81.8633 41.3553 81.6024 41.3531C80.1178 41.3426 78.6331 41.3426 77.1485 41.3531C76.8898 41.3531 76.8044 41.3105 76.8066 41.0256C76.8224 38.8994 76.8066 36.7642 76.8224 34.647C76.8224 34.3801 76.7459 34.3285 76.4939 34.3308C74.3945 34.3398 72.295 34.3398 70.1955 34.3308C69.9234 34.3308 69.8739 34.4115 69.8761 34.6627C69.8761 36.7979 69.8761 38.9241 69.8874 41.0682C69.8874 41.2925 69.8424 41.3575 69.6107 41.3553C68.0811 41.3448 66.5515 41.3448 65.0219 41.3553C64.8149 41.3553 64.7497 41.3082 64.7497 41.0907C64.7497 35.2593 64.7497 29.428 64.7497 23.5966C64.7497 23.3858 64.8059 23.323 65.0196 23.3253C66.5492 23.3342 68.0788 23.3342 69.6084 23.3253C69.8469 23.3253 69.8851 23.4105 69.8851 23.6213C69.8851 25.6847 69.8851 27.7481 69.8851 29.8115C69.8851 30.0515 69.9459 30.1076 70.182 30.1053C72.3055 30.0963 74.429 30.0963 76.5524 30.1053C76.7616 30.1053 76.8201 30.0537 76.8201 29.8407C76.8201 27.7683 76.8201 25.6959 76.8089 23.6235C76.8089 23.3993 76.8606 23.323 77.1035 23.3253C78.6241 23.3357 80.1448 23.3357 81.6654 23.3253C81.8903 23.3253 81.9443 23.397 81.9443 23.6146C81.9428 26.5228 81.9435 29.4377 81.9465 32.3593Z" fill="#E9920F"/>
<path d="M136.707 32.3298V23.6636C136.707 23.3204 136.707 23.3204 137.062 23.3204C139.707 23.3204 142.353 23.307 144.998 23.3204C146.685 23.3204 148.327 23.5851 149.823 24.4418C151.658 25.4848 152.72 27.048 152.947 29.1518C153.136 30.9124 152.826 32.5474 151.699 33.9649C150.684 35.241 149.31 35.9408 147.756 36.331C146.891 36.538 146.004 36.6419 145.115 36.6406C144.125 36.651 143.135 36.651 142.146 36.6406C141.907 36.6406 141.824 36.6877 141.826 36.9456C141.84 38.3272 141.826 39.7087 141.84 41.0903C141.84 41.3146 141.754 41.3482 141.561 41.346C140.04 41.346 138.52 41.346 136.999 41.346C136.763 41.346 136.7 41.2922 136.7 41.0522C136.709 38.144 136.711 35.2365 136.707 32.3298ZM141.833 29.9637C141.833 30.7531 141.833 31.5336 141.833 32.3298C141.833 32.5541 141.905 32.6192 142.123 32.6102C142.528 32.5945 142.933 32.6102 143.338 32.6102C144.127 32.5967 144.912 32.6551 145.704 32.5205C146.143 32.4471 146.555 32.2626 146.901 31.9846C147.248 31.7066 147.517 31.3445 147.682 30.9331C147.848 30.5216 147.904 30.0747 147.847 29.6351C147.789 29.1955 147.619 28.7781 147.353 28.4229C146.84 27.7209 146.093 27.4697 145.272 27.3979C144.204 27.3037 143.133 27.3755 142.065 27.3508C141.873 27.3508 141.817 27.4091 141.819 27.5953C141.837 28.3847 141.833 29.1742 141.833 29.9637Z" fill="#E9920F"/>
<path d="M60.1496 41.331H56.8767C56.2649 41.331 55.653 41.331 55.0412 41.331C54.9722 41.3418 54.9018 41.326 54.8441 41.2868C54.7865 41.2477 54.7459 41.1881 54.7307 41.1202C54.3214 40.0885 53.8962 39.0635 53.4868 38.0318C53.4692 37.9642 53.427 37.9056 53.3683 37.8674C53.3096 37.8293 53.2388 37.8143 53.1696 37.8255C50.7853 37.8255 48.4009 37.8255 46.0165 37.8255C45.9477 37.8159 45.8778 37.8325 45.8207 37.872C45.7636 37.9115 45.7235 37.9709 45.7083 38.0385C45.3012 39.0702 44.8783 40.0952 44.4666 41.1269C44.4512 41.1908 44.413 41.2469 44.3593 41.2848C44.3055 41.3228 44.2397 41.34 44.1742 41.3333C42.5456 41.3333 40.917 41.3333 39.2885 41.3333C39.2547 41.3333 39.2187 41.3333 39.1512 41.3333C39.3942 40.7815 39.6304 40.241 39.8688 39.7027C42.2427 34.3364 44.6143 28.973 46.9837 23.6127C47.0117 23.5186 47.0723 23.4374 47.1547 23.3836C47.2371 23.3298 47.3359 23.3069 47.4336 23.3189C48.9182 23.3323 50.4029 23.3189 51.8875 23.3189C51.9647 23.3077 52.0434 23.324 52.1096 23.3651C52.1759 23.4061 52.2255 23.4692 52.2496 23.5432C54.823 29.3461 57.3986 35.1475 59.9764 40.9475C60.0349 41.0664 60.0754 41.1807 60.1496 41.331ZM49.5976 28.354L47.3032 34.053H51.8942L49.5976 28.354Z" fill="#E9920F"/>
<path d="M132.1 41.3312H129.866C128.93 41.3312 127.994 41.3312 127.061 41.3312C126.975 41.3458 126.888 41.3278 126.815 41.2809C126.742 41.2339 126.689 41.1614 126.667 41.0777C126.274 40.0685 125.858 39.0704 125.459 38.0634C125.442 37.9871 125.396 37.9202 125.332 37.8754C125.267 37.8307 125.189 37.8114 125.111 37.8212C122.735 37.8301 120.361 37.8301 117.987 37.8212C117.914 37.8119 117.841 37.8297 117.781 37.8711C117.721 37.9125 117.678 37.9746 117.661 38.0454C117.253 39.0682 116.837 40.0864 116.423 41.1069C116.376 41.2213 116.347 41.3312 116.172 41.3312C114.5 41.3312 112.827 41.3312 111.153 41.3312C111.113 41.2145 111.187 41.1338 111.225 41.0531C113.791 35.2576 116.357 29.4569 118.925 23.651C118.955 23.543 119.023 23.4494 119.117 23.3872C119.211 23.3251 119.324 23.2985 119.435 23.3123C120.911 23.3303 122.384 23.3123 123.86 23.3123C123.933 23.301 124.008 23.3157 124.071 23.3538C124.135 23.3919 124.183 23.4511 124.206 23.5209C126.799 29.3717 129.395 35.221 131.994 41.0688C132.03 41.154 132.057 41.237 132.1 41.3312ZM123.851 34.0532L121.557 28.352L119.26 34.0532H123.851Z" fill="#E9920F"/>
<path d="M0.0494843 33.1063C0.0494843 32.6024 0.0494843 32.0978 0.0494843 31.5924C0.321665 28.2147 1.95925 25.7162 4.95098 24.1238C6.87199 23.0988 8.95046 22.8499 11.0964 23.0271C12.844 23.1428 14.5276 23.7279 15.9687 24.7204C16.5794 25.1504 17.1307 25.6587 17.6085 26.2321C17.7075 26.3487 17.6962 26.407 17.5838 26.5079C16.6045 27.3826 15.6298 28.2618 14.6595 29.1455C14.493 29.298 14.4076 29.2778 14.2614 29.1141C13.5071 28.1976 12.4622 27.5648 11.2989 27.3198C9.02469 26.887 6.71678 27.737 5.70679 29.8923C4.77778 31.8772 5.0612 34.7593 6.81575 36.2664C7.94047 37.2219 9.23839 37.5538 10.6758 37.4394C12.1626 37.3183 13.3503 36.6208 14.3086 35.4994C14.4233 35.3671 14.4863 35.3581 14.6213 35.4815C15.5885 36.3651 16.5633 37.2436 17.5455 38.1168C17.7142 38.2648 17.6872 38.3411 17.5613 38.4936C16.2165 40.0625 14.3642 41.1136 12.3246 41.4653C10.1944 41.8757 8.07768 41.7995 6.0397 41.0167C2.7308 39.7608 0.740058 37.3722 0.123715 33.8801C0.0787268 33.6266 0.0742279 33.3642 0.0494843 33.1063Z" fill="#E9920F"/>
<path d="M149.863 0.0625H158.236C158.308 0.0625 158.38 0.0625 158.461 0.0625C160.339 0.156699 162.1 0.609751 163.592 1.81639C164.894 2.86827 165.571 4.26107 165.747 5.91178C165.913 7.17149 165.734 8.45256 165.229 9.61917C164.462 11.326 163.104 12.3734 161.367 12.9834C160.258 13.3536 159.095 13.5348 157.925 13.5194C156.513 13.5194 155.1 13.5194 153.687 13.5194C153.478 13.5194 153.415 13.5733 153.415 13.7886C153.415 15.4371 153.415 17.0878 153.427 18.7385C153.427 18.9493 153.373 19.0099 153.159 19.0076C152.133 18.9964 151.107 19.0076 150.082 19.0076C149.904 19.0076 149.857 18.9583 149.857 18.7833C149.857 12.5752 149.857 6.37007 149.857 0.167913C149.854 0.123057 149.861 0.0871711 149.863 0.0625ZM153.413 6.77303C153.413 7.94827 153.413 9.12351 153.413 10.2965C153.413 10.5006 153.472 10.5544 153.672 10.5522C154.976 10.5522 156.279 10.5522 157.583 10.5522C158.186 10.5568 158.786 10.489 159.372 10.3503C160.526 10.0588 161.459 9.4846 161.934 8.33179C162.203 7.64464 162.285 6.89876 162.172 6.16971C162.125 5.64295 161.946 5.13643 161.652 4.69645C161.357 4.25646 160.957 3.89703 160.487 3.65102C159.678 3.23404 158.778 3.02221 157.867 3.03424C156.465 3.00957 155.062 3.03424 153.66 3.01181C153.449 3.01181 153.409 3.07461 153.409 3.26974C153.427 4.43152 153.413 5.59779 153.413 6.76181V6.77303Z" fill="#E9920F"/>
<path d="M28.9366 23.3213C31.5099 23.3213 34.0833 23.3213 36.6544 23.3213C36.9018 23.3213 36.9738 23.3841 36.9715 23.6353C36.958 24.8016 36.9715 25.9678 36.9715 27.1341C36.9715 27.3427 36.9221 27.4055 36.7039 27.4055C35.0483 27.4055 33.3927 27.4055 31.7371 27.3943C31.5122 27.3943 31.456 27.4548 31.456 27.6768C31.456 32.1266 31.456 36.5764 31.4672 41.0261C31.4672 41.2796 31.4132 41.3558 31.1478 41.3536C29.6722 41.3379 28.1965 41.3401 26.7209 41.3536C26.4667 41.3536 26.3925 41.3065 26.3947 41.0374C26.3947 36.5966 26.3947 32.158 26.406 27.7172C26.406 27.4548 26.343 27.3943 26.0843 27.3965C24.4287 27.4077 22.7732 27.3965 21.1176 27.4077C20.8927 27.4077 20.8477 27.3449 20.8499 27.1363C20.8589 25.9611 20.8589 24.7858 20.8499 23.6106C20.8499 23.3863 20.9151 23.3235 21.1378 23.3258C23.7367 23.3258 26.3363 23.3243 28.9366 23.3213Z" fill="#E9920F"/>
<path d="M171.885 23.3252C171.957 23.397 171.939 23.4889 171.939 23.5764C171.939 24.7636 171.939 25.95 171.939 27.1358C171.955 27.2244 171.937 27.3158 171.888 27.3914C170.18 27.3914 168.471 27.3914 166.763 27.3914C166.475 27.3914 166.433 27.4767 166.433 27.7346C166.433 32.1642 166.433 36.5937 166.446 41.0233C166.446 41.3059 166.365 41.353 166.104 41.3508C164.63 41.3403 163.155 41.3403 161.68 41.3508C161.455 41.3508 161.401 41.288 161.401 41.0682C161.401 36.6207 161.401 32.1731 161.414 27.7256C161.414 27.4408 161.331 27.3914 161.07 27.3937C159.351 27.3937 157.635 27.3937 155.917 27.3937L155.867 27.3421C155.867 26.0794 155.867 24.8144 155.856 23.5517C155.856 23.3274 155.971 23.3274 156.137 23.3274H165.36L171.885 23.3252Z" fill="#E9920F"/>
<path d="M155.867 27.3379L155.917 27.3895C155.881 27.3917 155.863 27.3738 155.867 27.3379Z" fill="#E9920F"/>
</g>
<defs>
<clipPath id="clip0_452_2">
<rect width="172" height="45" fill="white"/>
</clipPath>
</defs>
</svg>
